<?xml version="1.0" encoding="UTF-8" standalone="no"?><!-- Generator: Gravit.io -->
<svg xmlns="http://www.w3.org/2000/svg" xmlns:xlink="http://www.w3.org/1999/xlink" style="isolation:isolate"
     viewBox="0 0 255.118 141.732" width="255.118pt" height="141.732pt">
    <defs>
        <clipPath id="_clipPath_aq40hxxQQcPDMNV4MS4WesyHfzFre1nP">
            <rect width="255.118" height="141.732"/>
        </clipPath>
    </defs>
    <g clip-path="url(#_clipPath_aq40hxxQQcPDMNV4MS4WesyHfzFre1nP)">
        <g>
            <path d=" M -25 -22 L 279 -22 L 279 157 L -25 157 L -25 -22 Z " fill="none"/>
            <path d=" M 81.621 101.487 C 81.1 105.678 80.498 109.787 79.796 113.929 C 79.083 118.066 78.296 122.182 77.077 126.365 L 76.539 127.96 C 76.365 128.488 76.077 129.069 75.845 129.614 C 75.753 129.869 75.514 130.223 75.321 130.53 L 75.012 130.996 L 74.854 131.226 L 74.835 131.254 C 74.835 131.254 74.695 131.417 74.623 131.48 C 74.437 131.654 74.213 131.803 73.971 131.904 C 73.485 132.109 72.958 132.118 72.504 131.971 C 72.046 131.825 71.629 131.519 71.338 131.092 C 71.194 130.881 71.082 130.641 71.016 130.406 L 70.967 130.216 L 70.963 130.193 L 70.929 130.01 L 70.858 129.641 L 70.71 128.9 C 70.31 126.915 69.851 124.929 69.359 122.951 C 68.37 118.997 67.233 115.075 65.948 111.208 C 63.365 103.484 60.202 95.94 56.089 88.978 C 51.999 82.039 46.83 75.623 40.146 71.254 C 47.081 75.16 52.747 81.319 57.325 88.095 C 61.934 94.898 65.619 102.365 68.724 110.063 C 70.272 113.917 71.672 117.839 72.927 121.821 C 73.552 123.814 74.145 125.817 74.687 127.854 L 74.887 128.62 L 74.986 129.008 L 75.035 129.203 L 75.041 129.227 C 75.05 129.273 75.043 129.224 75.005 129.084 C 74.944 128.879 74.849 128.668 74.721 128.484 C 74.466 128.11 74.102 127.842 73.704 127.716 C 73.307 127.589 72.846 127.592 72.416 127.774 C 72.202 127.865 72.005 127.994 71.841 128.147 C 71.779 128.199 71.649 128.351 71.661 128.339 L 71.666 128.326 L 71.707 128.229 L 71.795 128.043 C 71.856 127.908 71.931 127.855 72 127.616 C 72.133 127.202 72.299 126.859 72.419 126.399 L 72.789 125.039 C 73.653 121.233 74.195 117.166 74.64 113.114 C 75.08 109.059 75.432 104.943 75.689 100.89 L 81.621 101.487 Z "
                  fill="#FF8F00"/>
            <path d=" M 47.225 81.982 C 45.665 84.009 44.55 86.35 43.668 88.751 C 42.797 91.161 42.082 93.625 41.653 96.153 C 40.735 101.193 40.495 106.335 40.776 111.441 C 40.862 112.717 40.994 113.992 41.098 115.266 L 41.264 117.173 L 41.554 119.07 L 42.134 122.858 C 42.365 124.114 42.666 125.36 42.928 126.609 C 43.213 127.855 43.435 129.11 43.77 130.344 L 44.768 134.044 L 45.266 135.893 L 45.535 136.904 C 45.74 137.714 45.671 138.629 45.341 139.407 C 45.014 140.187 44.433 140.855 43.681 141.258 C 43.307 141.46 42.897 141.583 42.485 141.638 C 41.986 141.685 41.879 141.65 41.661 141.645 C 40.843 141.622 40.05 141.465 39.298 141.236 C 36.256 140.287 33.961 138.209 32.175 136.017 C 31.326 134.892 30.471 133.746 29.808 132.536 C 29.062 131.352 28.477 130.115 27.881 128.88 C 25.561 123.921 24.052 118.756 22.768 113.582 L 21.869 109.687 L 21.15 105.769 C 20.627 103.163 20.317 100.531 19.91 97.908 C 19.195 92.689 18.612 87.559 17.803 82.482 C 17.049 77.405 16.144 72.431 14.577 67.842 C 13.014 63.256 10.616 59.018 7.916 54.741 C 7.579 54.192 7.256 53.704 6.907 53.103 L 5.856 51.262 C 5.486 50.658 5.199 50.014 4.916 49.369 L 4.058 47.439 C 3.103 44.799 2.265 42.113 1.847 39.354 C 1.335 36.612 1.175 33.827 1.157 31.057 C 1.26 28.288 1.443 25.519 2.022 22.81 C 2.231 21.445 2.653 20.119 2.984 18.781 C 3.176 18.117 3.424 17.468 3.642 16.813 C 3.863 16.158 4.084 15.504 4.382 14.875 C 5.396 12.301 6.853 9.893 8.557 7.708 L 9.942 6.147 C 10.422 5.646 10.983 5.123 11.553 4.702 C 12.688 3.8 13.948 3.158 15.211 2.633 C 17.758 1.605 20.383 1.211 22.951 1.101 C 28.101 0.973 33.082 1.876 37.896 3.219 C 42.706 4.586 47.387 6.383 51.826 8.68 C 49.496 7.82 47.122 7.123 44.738 6.509 C 42.356 5.883 39.958 5.344 37.549 4.931 C 32.743 4.115 27.856 3.636 23.159 4.194 C 20.826 4.477 18.533 4.993 16.524 5.98 C 15.529 6.479 14.58 7.047 13.786 7.78 C 13.369 8.134 13.021 8.507 12.653 8.944 L 11.59 10.316 C 8.943 14.153 7.261 18.847 6.596 23.697 C 5.894 28.539 6.001 33.535 6.969 38.281 C 7.389 40.676 8.188 42.945 9.042 45.153 L 9.806 46.741 C 10.056 47.272 10.305 47.804 10.627 48.284 L 11.525 49.769 C 11.832 50.272 12.232 50.844 12.58 51.378 C 15.458 55.689 18.184 60.47 20.037 65.699 C 21.866 70.927 22.868 76.253 23.68 81.473 C 24.466 86.7 25.014 91.948 25.671 97.065 C 26.043 99.599 26.319 102.156 26.799 104.662 L 27.457 108.438 L 28.233 112.17 C 29.315 117.114 30.625 122.019 32.572 126.483 C 33.521 128.731 34.696 130.795 36.006 132.649 C 37.333 134.469 38.948 135.926 40.647 136.54 C 41.067 136.695 41.494 136.804 41.905 136.835 C 42.303 136.871 41.84 136.851 41.689 136.979 C 41.491 137.092 41.355 137.262 41.285 137.448 C 41.208 137.631 41.201 137.862 41.251 138.039 L 41.059 137.156 L 40.627 135.214 L 39.766 131.334 C 39.471 130.046 39.336 128.711 39.113 127.402 C 38.922 126.088 38.693 124.782 38.532 123.462 L 38.171 119.481 L 37.993 117.496 L 37.94 115.495 C 37.918 114.16 37.843 112.833 37.866 111.501 C 38.008 106.171 38.619 100.833 40.06 95.73 C 41.506 90.673 43.684 85.685 47.225 81.982 Z "
                  fill="#FF8F00"/>
            <path d=" M 90.445 40.167 C 91.195 37.053 91.562 33.571 91.44 30.271 C 91.312 26.95 90.652 23.654 89.156 20.845 C 87.657 18.053 85.255 15.865 82.353 14.657 C 79.478 13.367 76.218 13.001 72.992 13.005 C 66.432 13.22 59.746 13.684 53.11 13.798 C 49.787 13.856 46.45 13.893 43.124 13.54 C 41.466 13.367 39.801 13.076 38.223 12.472 C 36.64 11.888 35.199 10.969 33.845 9.956 C 35.241 10.906 36.712 11.748 38.294 12.248 C 39.869 12.766 41.516 12.976 43.161 13.068 C 46.456 13.26 49.77 13.067 53.074 12.852 C 59.706 12.421 66.249 11.648 72.943 11.11 C 76.321 10.951 79.826 11.15 83.153 12.445 C 86.488 13.644 89.534 16.126 91.451 19.376 C 93.373 22.632 94.261 26.382 94.562 30.057 C 94.839 33.775 94.636 37.377 93.906 41.117 L 90.445 40.167 Z "
                  fill="#FF8F00"/>
            <path d=" M 131.031 38.281 C 134.159 38.281 136.728 40.978 136.728 44.26 C 136.728 47.543 134.159 50.238 131.031 50.238 C 127.875 50.238 125.334 47.543 125.334 44.26 C 125.334 40.978 127.875 38.281 131.031 38.281 Z  M 200.319 72.07 C 200.319 70.282 200.599 68.495 201.158 66.708 C 201.716 64.89 202.526 63.279 203.588 61.784 C 204.648 60.319 205.961 59.117 207.469 58.179 C 208.977 57.242 210.709 56.773 212.608 56.773 L 251.595 56.773 C 252.489 56.773 253.243 57.095 253.857 57.77 C 254.499 58.414 254.806 59.206 254.806 60.143 C 254.806 61.081 254.499 61.872 253.857 62.516 C 253.243 63.19 252.489 63.514 251.595 63.514 L 214.005 63.514 C 212.469 63.514 211.184 63.806 210.234 64.393 C 209.285 64.979 208.53 65.682 207.971 66.532 C 207.414 67.382 207.022 68.29 206.826 69.287 C 206.631 70.312 206.52 71.22 206.52 72.07 C 206.52 72.92 206.631 73.828 206.826 74.854 C 207.022 75.851 207.414 76.758 207.971 77.608 C 208.53 78.458 209.285 79.163 210.234 79.748 C 211.184 80.334 212.469 80.628 214.005 80.628 L 251.595 80.628 C 252.489 80.628 253.243 80.95 253.857 81.624 C 254.499 82.269 254.806 83.06 254.806 83.997 C 254.806 84.936 254.499 85.726 253.857 86.372 C 253.243 87.045 252.489 87.368 251.595 87.368 L 211.937 87.368 C 210.122 87.368 208.503 86.898 207.05 85.96 C 205.626 85.023 204.425 83.822 203.42 82.357 C 202.414 80.862 201.66 79.221 201.102 77.404 C 200.57 75.588 200.319 73.799 200.319 72.07 Z  M 140.805 72.07 C 140.805 70.282 141.085 68.495 141.643 66.708 C 142.202 64.89 143.012 63.279 144.073 61.784 C 145.162 60.319 146.448 59.117 147.955 58.179 C 149.464 57.242 151.195 56.773 153.094 56.773 L 192.08 56.773 C 192.974 56.773 193.728 57.095 194.371 57.77 C 194.985 58.414 195.293 59.206 195.293 60.143 C 195.293 61.081 194.985 61.872 194.371 62.516 C 193.728 63.19 192.974 63.514 192.08 63.514 L 154.518 63.514 C 152.954 63.514 151.698 63.806 150.72 64.393 C 149.771 64.979 149.017 65.682 148.458 66.532 C 147.899 67.382 147.537 68.29 147.313 69.287 C 147.117 70.312 147.034 71.22 147.034 72.07 C 147.034 72.92 147.117 73.828 147.313 74.854 C 147.537 75.851 147.899 76.758 148.458 77.608 C 149.017 78.458 149.771 79.163 150.72 79.748 C 151.698 80.334 152.954 80.628 154.518 80.628 L 192.08 80.628 C 192.974 80.628 193.728 80.95 194.371 81.624 C 194.985 82.269 195.293 83.06 195.293 83.997 C 195.293 84.936 194.985 85.726 194.371 86.372 C 193.728 87.045 192.974 87.368 192.08 87.368 L 152.424 87.368 C 150.609 87.368 148.988 86.898 147.564 85.96 C 146.14 85.023 144.911 83.822 143.906 82.357 C 142.9 80.862 142.146 79.221 141.616 77.404 C 141.057 75.588 140.805 73.799 140.805 72.07 Z  M 134.131 83.997 C 134.131 84.936 133.795 85.726 133.182 86.372 C 132.567 87.045 131.812 87.368 130.919 87.368 C 130.025 87.368 129.271 87.045 128.628 86.372 C 128.015 85.726 127.707 84.936 127.707 83.997 L 127.707 60.143 C 127.707 59.206 128.015 58.414 128.628 57.77 C 129.271 57.095 130.025 56.773 130.919 56.773 C 131.812 56.773 132.567 57.095 133.182 57.77 C 133.795 58.414 134.131 59.206 134.131 60.143 L 134.131 83.997 Z  M 75.092 68.699 L 90.536 68.699 C 92.854 68.699 95.116 68.379 97.35 67.762 C 99.584 67.118 101.735 66.297 103.857 65.272 C 105.98 64.246 108.018 63.073 109.945 61.754 C 111.872 60.436 113.744 59.117 115.532 57.77 C 116.285 57.095 117.039 56.773 117.793 56.773 C 118.687 56.773 119.441 57.095 120.083 57.77 C 120.698 58.414 121.005 59.206 121.005 60.143 C 121.005 60.788 120.838 61.374 120.474 61.872 C 120.111 62.34 119.693 62.78 119.217 63.161 C 118.045 64.1 116.928 64.979 115.866 65.8 C 114.805 66.619 113.716 67.382 112.655 68.084 C 111.593 68.788 110.476 69.462 109.359 70.106 C 108.214 70.752 106.985 71.426 105.701 72.07 C 106.985 72.716 108.214 73.389 109.359 74.034 C 110.476 74.678 111.593 75.382 112.655 76.056 C 113.716 76.758 114.805 77.521 115.866 78.341 C 116.928 79.163 118.045 80.042 119.217 80.979 C 119.693 81.36 120.111 81.8 120.474 82.269 C 120.838 82.766 121.005 83.352 121.005 83.997 C 121.005 84.936 120.698 85.726 120.083 86.372 C 119.441 87.045 118.687 87.368 117.793 87.368 C 117.039 87.368 116.285 87.045 115.532 86.372 C 113.716 84.994 111.816 83.616 109.889 82.327 C 107.935 81.009 105.924 79.836 103.829 78.811 C 101.735 77.785 99.584 76.964 97.35 76.349 C 95.116 75.734 92.854 75.44 90.536 75.44 L 75.092 75.44 L 75.092 83.997 C 75.092 84.936 74.756 85.726 74.142 86.372 C 73.527 87.045 72.773 87.368 71.935 87.368 C 71.042 87.368 70.287 87.045 69.674 86.372 C 69.031 85.726 68.724 84.936 68.724 83.997 L 68.724 60.143 C 68.724 59.206 69.031 58.414 69.674 57.77 C 70.287 57.095 71.014 56.773 71.879 56.773 C 72.773 56.773 73.527 57.095 74.142 57.77 C 74.756 58.414 75.092 59.206 75.092 60.143 L 75.092 68.699 Z "
                  fill-rule="evenodd" fill="#FF8F00"/>
        </g>
    </g>
</svg>